<?xml version="1.0" encoding="UTF-8"?>
<!DOCTYPE svg PUBLIC "-//W3C//DTD SVG 1.1//EN" "http://www.w3.org/Graphics/SVG/1.1/DTD/svg11.dtd">
<!-- Creator: CorelDRAW 2021 (64-Bit) -->
<svg xmlns="http://www.w3.org/2000/svg" xml:space="preserve" width="26.4582mm" height="26.4582mm" version="1.1" style="shape-rendering:geometricPrecision; text-rendering:geometricPrecision; image-rendering:optimizeQuality; fill-rule:evenodd; clip-rule:evenodd"
viewBox="0 0 33.33 33.33"
 xmlns:xlink="http://www.w3.org/1999/xlink"
 xmlns:xodm="http://www.corel.com/coreldraw/odm/2003">
 <defs>
  <style type="text/css">
   <![CDATA[
    .fil1 {fill:#FEFEFE}
    .fil0 {fill:url(#id0);fill-rule:nonzero}
   ]]>
  </style>
  <linearGradient id="id0" gradientUnits="userSpaceOnUse" x1="0" y1="16.67" x2="33.33" y2="16.67">
   <stop offset="0" style="stop-opacity:1; stop-color:#73397F"/>
   <stop offset="1" style="stop-opacity:1; stop-color:#3F2C42"/>
  </linearGradient>
 </defs>
 <g id="Capa_x0020_1">
  <metadata id="CorelCorpID_0Corel-Layer"/>
  <circle class="fil0" cx="16.67" cy="16.67" r="16.67"/>
  <g id="_2228326608624">
   <path class="fil1" d="M10.84 27.15c0.07,-0.29 0.03,-2.98 0.02,-3.66 -0,-0.13 -0,-0.14 0.03,-0.23 0.04,-0.14 0.04,-0.04 0,-0.2 -0.05,-0.2 -0.03,-0.43 -0.03,-0.64l0.41 0.39c0.13,-0.03 0.05,-0.02 0.15,-0.07l0 2.68 -0.01 -18.2 10.49 -0.01 0 18.21c0.13,-0.08 0.05,0.02 0.08,-0.18l-0 -3.18c0.1,0.05 0.25,0.23 0.35,0.33 0.18,0.18 0.21,0.12 0.21,0.46 -0.01,1.11 0.07,3.51 -0.01,4.3 0.06,-0.48 0.01,-13.77 0.01,-14.22 0,-1.19 0,-2.38 0,-3.57 -0,-0.77 0.09,-2.93 -0.09,-3.49 -0.13,-0.44 -0.41,-0.79 -0.76,-1.02 -0.46,-0.31 -0.8,-0.32 -1.46,-0.32l-7.11 -0c-0.65,-0 -1,0 -1.47,0.31 -0.39,0.25 -0.65,0.63 -0.77,1.01 -0.18,0.58 -0.1,2.71 -0.1,3.48 0,5.78 0.03,11.61 -0,17.39 -0,0.14 -0.03,0.33 0.05,0.44zm7.05 -21.44l-2.47 0c-0.25,0 -0.51,-0.03 -0.62,0.16 -0.41,0.71 1.36,0.48 1.86,0.48 0.67,0 2.17,0.22 1.88,-0.45 -0.09,-0.21 -0.37,-0.18 -0.64,-0.18zm-4.83 0.04c-0.44,0.21 -0.11,0.71 0.24,0.57 0.34,-0.13 0.15,-0.75 -0.24,-0.57z"/>
   <path class="fil1" d="M21.9 25.42l-10.48 0 0 -2.68c-0.1,0.05 -0.02,0.04 -0.15,0.07l-0.41 -0.39c0,0.21 -0.02,0.44 0.03,0.64 0.04,0.16 0.04,0.06 0,0.2 -0.03,0.09 -0.03,0.1 -0.03,0.23 0,0.68 0.05,3.36 -0.02,3.66 -0.07,0.39 0.34,0.99 0.63,1.22 0.44,0.36 0.8,0.45 1.42,0.45l7.5 -0c1.26,0 1.89,-0.57 2.13,-1.66 0.08,-0.79 -0,-3.19 0.01,-4.3 0,-0.35 -0.03,-0.29 -0.21,-0.46 -0.1,-0.1 -0.24,-0.27 -0.35,-0.33l0 3.18c-0.03,0.2 0.05,0.1 -0.08,0.18zm-5.43 0.57c-1.29,0.35 -0.78,2.11 0.42,1.85 0.42,-0.09 0.84,-0.54 0.7,-1.15 -0.09,-0.41 -0.57,-0.85 -1.12,-0.7z"/>
  </g>
 </g>
</svg>
