<?xml version="1.0" encoding="UTF-8"?>
<!DOCTYPE svg PUBLIC "-//W3C//DTD SVG 1.1//EN" "http://www.w3.org/Graphics/SVG/1.1/DTD/svg11.dtd">
<!-- Creator: CorelDRAW 2021 (64-Bit) -->
<svg xmlns="http://www.w3.org/2000/svg" xml:space="preserve" width="26.4582mm" height="26.4582mm" version="1.1" style="shape-rendering:geometricPrecision; text-rendering:geometricPrecision; image-rendering:optimizeQuality; fill-rule:evenodd; clip-rule:evenodd"
viewBox="0 0 33.33 33.33"
 xmlns:xlink="http://www.w3.org/1999/xlink"
 xmlns:xodm="http://www.corel.com/coreldraw/odm/2003">
 <defs>
  <style type="text/css">
   <![CDATA[
    .fil1 {fill:#FEFEFE}
    .fil0 {fill:url(#id0);fill-rule:nonzero}
   ]]>
  </style>
  <linearGradient id="id0" gradientUnits="userSpaceOnUse" x1="0" y1="16.67" x2="33.33" y2="16.67">
   <stop offset="0" style="stop-opacity:1; stop-color:#73397F"/>
   <stop offset="1" style="stop-opacity:1; stop-color:#3F2C42"/>
  </linearGradient>
 </defs>
 <g id="Capa_x0020_1">
  <metadata id="CorelCorpID_0Corel-Layer"/>
  <circle class="fil0" cx="16.67" cy="16.67" r="16.67"/>
  <path class="fil1" d="M10.71 27.58c-0.02,0.29 -0.2,0.21 -0.51,0.25 -0.22,0.03 -0.46,0.07 -0.66,0.12 -0.78,0.19 -0.8,0.35 -1.08,0.46 -0.06,0.15 -0.38,0.64 -0.03,0.82l1.77 0.09c0.43,0 0.83,0.01 1.25,0.04 0.2,0.01 0.41,0.04 0.61,0.04 0.21,0 0.4,-0.05 0.6,-0.03 0.15,-0.14 0.27,-0.09 0.47,-0.29 0.03,-0.03 1.46,-5.53 1.75,-6.26 0.09,-0.22 0.1,-0.46 0.34,-0.5 0.4,0.41 0.25,4.42 0.25,5.26 -0.11,1.51 -0.09,0.84 0.79,1.84 0.28,-0.01 0.78,0.04 1.14,0.04 0.4,-0 0.81,-0.02 1.21,-0.01l1.9 -0.08c0.18,-0.36 0.15,-0.7 -0.13,-1.01 -0.01,-0.01 -0.02,-0.02 -0.02,-0.02l-0.07 -0.08c-0.11,-0.02 -0.27,-0.1 -0.43,-0.15 -0.64,-0.18 -1.51,-0.07 -1.64,-0.27l-0 -0.92c0,-0.01 0.01,-0.02 0.01,-0.03 -0.13,-0.4 0.21,-2.06 0.3,-2.54 0.15,-0.8 0.32,-1.64 0.34,-2.51 0.04,-1.56 -0.65,-3.33 -1.09,-4.62 -0.19,-0.57 0,-0.67 0.53,-0.72 3.15,-0.32 4.21,0.93 6.09,0.94 0.62,0 1.1,-0.23 1.44,-0.68 0.15,-0.2 0.12,-0.32 0.2,-0.52l0 -0.24c-0.1,-0.23 -0.16,-0.76 -0.63,-0.92 -0.53,-0.18 -0.89,0.02 -1.34,-0 0.34,-0.26 0.55,-1.13 0.16,-1.62 -0.49,0.07 -0.26,0.73 -0.66,1.08 -0.78,0.68 -3.49,0.29 -4.41,0.12 -0.64,-0.12 -2.21,-0.5 -2.6,-0.81 -0.47,-0.38 0.08,-0.87 0.29,-1.06 0.83,-0.79 1.74,-1.36 2.08,-3.02 0.44,-2.1 -0.65,-4.72 -2.72,-5.56 -0.72,-0.29 -1.14,-0.23 -1.36,-0.31l-0.5 0c-0.16,0.06 -0.69,0.1 -0.94,0.18 -3,0.87 -4.43,4.76 -2.03,7.9 0.86,1.12 2.27,1.38 0.62,2.37 -0.56,0.34 -0.97,0.44 -1.34,0.91 -0.85,1.1 -1.63,3.27 -2.18,4.57 -0.36,0.86 -0.6,0.61 -0.94,1.31 -0.31,0.64 -0.33,1.12 -0.01,1.77 0.24,0.49 0.74,0.92 1.42,0.5 0.49,-0.3 0.71,-0.67 0.99,-1.3 0.29,0.22 0.37,0.68 0.99,0.55 0.07,-0.26 0.03,-0.42 -0.08,-0.65 -0.24,-0.56 -0.67,-0.66 -0.47,-1.88 0.08,-0.48 0.19,-0.91 0.35,-1.3 0.09,-0.21 0.47,-0.95 0.57,-1.08 0.19,2.29 -0.17,7.53 -0.6,9.84z"/>
 </g>
</svg>
